<svg width="140" height="31" viewBox="0 0 140 31" fill="none" xmlns="http://www.w3.org/2000/svg">
<g clip-path="url(#clip0_895_787)">
<path fill-rule="evenodd" clip-rule="evenodd" d="M16.5935 11.5569C16.7669 11.6989 16.9828 11.7764 17.2058 11.7764C18.8586 11.7764 25.9873 11.7764 28.2609 11.7764C28.3697 11.7764 28.4666 11.845 28.5046 11.9485C28.5423 12.0516 28.5126 12.1676 28.4303 12.2397C25.3254 14.951 9.55685 28.7197 7.28106 30.7073C7.10453 30.8614 6.87889 30.9461 6.64573 30.9461C5.88566 30.9461 4.11865 30.9461 3.2378 30.9461C3.13958 30.9461 3.04978 30.8901 3.00598 30.8009C2.96174 30.7118 2.97104 30.6051 3.02988 30.5254C4.85617 28.0453 14.1934 15.3654 16.0192 12.8854C16.0781 12.8056 16.0873 12.6986 16.0435 12.6098C15.9993 12.5207 15.9095 12.4642 15.8113 12.4642C14.3469 12.4642 10.2063 12.4642 9.00425 12.4642C8.79676 12.4642 8.6012 12.3634 8.4791 12.1927C7.33191 10.5904 1.45 2.37374 0.0497506 0.418377C-0.00732112 0.338173 -0.0157154 0.231977 0.0285263 0.143709C0.0732103 0.055439 0.162583 -0.000127792 0.259915 -0.000127792C0.814705 -0.000127792 1.68669 -0.000127792 2.16627 -0.000127792C2.38925 -0.000127792 2.60516 0.0778351 2.77859 0.219873C4.57082 1.69043 14.8017 10.0863 16.5935 11.5569Z" fill="#3237B7"/>
<path d="M33.8023 25.3568H37.1957C37.3403 25.3568 37.4857 25.269 37.5439 25.0922L38.8196 21.1209H47.2303L48.5061 25.0922C48.5642 25.2981 48.7387 25.3568 48.8833 25.3568H52.3348C52.5667 25.3568 52.654 25.2097 52.5958 25.0039L45.6354 5.03016C45.5772 4.85401 45.4035 4.76561 45.2581 4.76561H40.8791C40.7337 4.76561 40.5599 4.85401 40.5018 5.03016L33.5414 25.0039C33.4832 25.2097 33.5414 25.3568 33.8023 25.3568ZM39.8635 17.856L42.9668 8.14854H43.0831L46.1864 17.856H39.8635Z" fill="#212121"/>
<path d="M60.9193 25.5633C65.009 25.5633 67.5322 23.6508 68.0542 20.7679C68.0832 20.5918 67.9669 20.5331 67.735 20.5331H64.4863C64.3126 20.5331 64.197 20.5918 64.1389 20.7976C63.7616 21.9151 62.6886 22.592 60.9774 22.592C58.7443 22.592 57.4685 21.268 57.265 18.9445H67.8223C67.996 18.9445 68.1406 18.7974 68.1406 18.6206V17.7973C68.1406 13.0019 65.4147 10.09 60.9193 10.09C56.192 10.09 53.176 13.12 53.176 17.856C53.176 22.5623 56.1629 25.5633 60.9193 25.5633ZM57.265 16.532C57.4969 14.2672 58.7734 13.0607 60.9484 13.0607C62.8915 13.0607 64.1098 14.326 64.2545 16.532H57.265Z" fill="#212121"/>
<path d="M70.491 25.3568H73.8552C74.029 25.3568 74.1453 25.2394 74.1453 25.0335V13.5317H79.0753C79.2782 13.5317 79.3945 13.4143 79.3945 13.2078V10.6191C79.3945 10.4133 79.2782 10.2959 79.0753 10.2959H74.6091C71.7377 10.2959 70.1718 11.8844 70.1718 14.7963V25.0335C70.1718 25.2394 70.2874 25.3568 70.491 25.3568Z" fill="#212121"/>
<path d="M87.9235 25.5633C92.5345 25.5633 95.6378 22.4745 95.6378 17.856C95.6378 13.2078 92.5636 10.09 87.9235 10.09C83.3119 10.09 80.2376 13.2078 80.2376 17.856C80.2376 22.4745 83.3119 25.5633 87.9235 25.5633ZM84.2983 17.856C84.2983 14.826 85.6032 13.12 87.9235 13.12C90.2432 13.12 91.5778 14.826 91.5778 17.856C91.5778 20.8266 90.2141 22.5333 87.9235 22.5333C85.6032 22.5333 84.2983 20.8266 84.2983 17.856Z" fill="#212121"/>
<path d="M97.9852 30.9464H101.349C101.523 30.9464 101.639 30.8283 101.639 30.6225V23.1508H101.784C102.77 24.6219 104.51 25.5633 106.396 25.5633C110.369 25.5633 112.805 22.592 112.805 17.7973C112.805 13.0607 110.339 10.09 106.396 10.09C104.395 10.09 102.509 11.0017 101.581 12.4729H101.465V10.6191C101.465 10.4133 101.349 10.2959 101.146 10.2959H97.9852C97.7817 10.2959 97.6661 10.4133 97.6661 10.6191V30.6225C97.6661 30.8283 97.7817 30.9464 97.9852 30.9464ZM101.494 17.7973C101.494 14.8847 102.799 13.1787 105.061 13.1787C107.352 13.1787 108.745 14.8847 108.745 17.7973C108.745 20.7389 107.352 22.4746 105.061 22.4746C102.828 22.4746 101.494 20.7389 101.494 17.7973Z" fill="#212121"/>
<path d="M115.038 25.3568H118.403C118.576 25.3568 118.693 25.2394 118.693 25.0335V13.5317H123.623C123.826 13.5317 123.942 13.4143 123.942 13.2078V10.6191C123.942 10.4133 123.826 10.2959 123.623 10.2959H119.156C116.285 10.2959 114.719 11.8844 114.719 14.7963V25.0335C114.719 25.2394 114.835 25.3568 115.038 25.3568Z" fill="#212121"/>
<path d="M132.411 25.5633C137.022 25.5633 140.125 22.4745 140.125 17.856C140.125 13.2078 137.051 10.09 132.411 10.09C127.799 10.09 124.725 13.2078 124.725 17.856C124.725 22.4745 127.799 25.5633 132.411 25.5633ZM128.785 17.856C128.785 14.826 130.09 13.12 132.411 13.12C133.079 13.12 133.666 13.2613 134.162 13.5355C135.389 14.213 136.065 15.699 136.065 17.856C136.065 20.8266 134.702 22.5333 132.411 22.5333C130.09 22.5333 128.785 20.8266 128.785 17.856Z" fill="#212121"/>
</g>
<defs>
<clipPath id="clip0_895_787">
<rect width="140" height="31" fill="white"/>
</clipPath>
</defs>
</svg>
