<svg width="184" height="41" viewBox="0 0 184 41" fill="none" xmlns="http://www.w3.org/2000/svg">
<path fill-rule="evenodd" clip-rule="evenodd" d="M21.7887 14.9864C22.0165 15.1706 22.3 15.2712 22.5928 15.2712C24.7632 15.2712 34.1239 15.2712 37.1094 15.2712C37.2523 15.2712 37.3796 15.3601 37.4295 15.4943C37.4789 15.6279 37.44 15.7784 37.3319 15.8719C33.2548 19.3877 12.5488 37.2421 9.56045 39.8195C9.32865 40.0194 9.03235 40.1292 8.72619 40.1292C7.72813 40.1292 5.40783 40.1292 4.25117 40.1292C4.1222 40.1292 4.00428 40.0566 3.94676 39.941C3.88867 39.8253 3.90088 39.6871 3.97814 39.5836C6.37628 36.3676 18.6371 19.9252 21.0347 16.7092C21.1119 16.6058 21.1241 16.4669 21.0666 16.3519C21.0085 16.2362 20.8906 16.163 20.7616 16.163C18.8387 16.163 13.4016 16.163 11.8232 16.163C11.5507 16.163 11.294 16.0323 11.1336 15.8109C9.62722 13.7332 1.90358 3.07831 0.0648876 0.542709C-0.0100543 0.438705 -0.0210769 0.300999 0.0370175 0.186535C0.095693 0.0720749 0.21305 1.90735e-05 0.340858 1.90735e-05C1.06936 1.90735e-05 2.21438 1.90735e-05 2.84413 1.90735e-05C3.13692 1.90735e-05 3.42044 0.101116 3.64817 0.285301C6.00158 2.19223 19.4359 13.0795 21.7887 14.9864Z" fill="white"/>
<path d="M44.3861 32.8813H48.842C49.0319 32.8813 49.2228 32.7675 49.2992 32.5382L50.9744 27.3884H62.0186L63.6938 32.5382C63.7702 32.8051 63.9993 32.8813 64.1892 32.8813H68.7215C69.026 32.8813 69.1405 32.6905 69.0642 32.4236L59.9243 6.52292C59.848 6.2945 59.6198 6.17987 59.4289 6.17987H53.6787C53.4878 6.17987 53.2596 6.2945 53.1833 6.52292L44.0434 32.4236C43.9671 32.6905 44.0434 32.8813 44.3861 32.8813ZM52.3452 23.1547L56.4201 10.5667H56.5729L60.6479 23.1547H52.3452Z" fill="white"/>
<path d="M79.9938 33.149C85.3641 33.149 88.6774 30.6691 89.3628 26.9307C89.4009 26.7023 89.2482 26.6262 88.9437 26.6262H84.6778C84.4497 26.6262 84.2979 26.7023 84.2215 26.9692C83.7261 28.4184 82.3172 29.2961 80.0702 29.2961C77.1378 29.2961 75.4626 27.5792 75.1953 24.5662H89.0583C89.2864 24.5662 89.4763 24.3755 89.4763 24.1462V23.0786C89.4763 16.8603 85.8968 13.0843 79.9938 13.0843C73.7864 13.0843 69.8259 17.0134 69.8259 23.1547C69.8259 29.2576 73.7482 33.149 79.9938 33.149ZM75.1953 21.4378C75.4998 18.501 77.176 16.9364 80.032 16.9364C82.5835 16.9364 84.1834 18.5772 84.3733 21.4378H75.1953Z" fill="white"/>
<path d="M92.5626 32.8813H96.9803C97.2084 32.8813 97.3611 32.729 97.3611 32.4621V17.5472H103.835C104.101 17.5472 104.254 17.3949 104.254 17.1272V13.7704C104.254 13.5035 104.101 13.3512 103.835 13.3512H97.9701C94.1997 13.3512 92.1436 15.4111 92.1436 19.1871V32.4621C92.1436 32.729 92.2953 32.8813 92.5626 32.8813Z" fill="white"/>
<path d="M115.454 33.149C121.508 33.149 125.583 29.1438 125.583 23.1547C125.583 17.1272 121.546 13.0843 115.454 13.0843C109.398 13.0843 105.361 17.1272 105.361 23.1547C105.361 29.1438 109.398 33.149 115.454 33.149ZM110.693 23.1547C110.693 19.2256 112.407 17.0134 115.454 17.0134C118.5 17.0134 120.252 19.2256 120.252 23.1547C120.252 27.0069 118.461 29.2199 115.454 29.2199C112.407 29.2199 110.693 27.0069 110.693 23.1547Z" fill="white"/>
<path d="M128.666 40.1296H133.083C133.312 40.1296 133.463 39.9764 133.463 39.7095V30.0206H133.654C134.949 31.9283 137.234 33.149 139.71 33.149C144.927 33.149 148.126 29.2961 148.126 23.0786C148.126 16.9364 144.888 13.0843 139.71 13.0843C137.082 13.0843 134.606 14.2665 133.388 16.1742H133.235V13.7704C133.235 13.5035 133.083 13.3512 132.816 13.3512H128.666C128.398 13.3512 128.247 13.5035 128.247 13.7704V39.7095C128.247 39.9764 128.398 40.1296 128.666 40.1296ZM133.273 23.0786C133.273 19.3018 134.987 17.0895 137.957 17.0895C140.966 17.0895 142.794 19.3018 142.794 23.0786C142.794 26.8931 140.966 29.1438 137.957 29.1438C135.025 29.1438 133.273 26.8931 133.273 23.0786Z" fill="white"/>
<path d="M151.059 32.8813H155.476C155.704 32.8813 155.857 32.729 155.857 32.4621V17.5472H162.331C162.597 17.5472 162.75 17.3949 162.75 17.1272V13.7704C162.75 13.5035 162.597 13.3512 162.331 13.3512H156.466C152.696 13.3512 150.64 15.4111 150.64 19.1871V32.4621C150.64 32.729 150.791 32.8813 151.059 32.8813Z" fill="white"/>
<path d="M173.871 33.149C179.925 33.149 184 29.1438 184 23.1547C184 17.1272 179.963 13.0843 173.871 13.0843C167.815 13.0843 163.778 17.1272 163.778 23.1547C163.778 29.1438 167.815 33.149 173.871 33.149ZM169.11 23.1547C169.11 19.2256 170.824 17.0134 173.871 17.0134C174.748 17.0134 175.518 17.1966 176.17 17.5522C177.781 18.4308 178.669 20.3577 178.669 23.1547C178.669 27.0069 176.879 29.2199 173.871 29.2199C170.824 29.2199 169.11 27.0069 169.11 23.1547Z" fill="white"/>
</svg>
