<svg width="16" height="16" viewBox="0 0 16 16" fill="none" xmlns="http://www.w3.org/2000/svg">
<g clip-path="url(#clip0_883_948)">
<path d="M15.04 8.16666C15.04 7.64666 14.9933 7.14666 14.9067 6.66666H8V9.50666H11.9467C11.7733 10.42 11.2533 11.1933 10.4733 11.7133V13.56H12.8533C14.24 12.28 15.04 10.4 15.04 8.16666Z" fill="#4285F4"/>
<path d="M8.00001 15.3333C9.98001 15.3333 11.64 14.68 12.8533 13.56L10.4733 11.7133C9.82001 12.1533 8.98667 12.42 8.00001 12.42C6.09334 12.42 4.47334 11.1333 3.89334 9.39999H1.45334V11.2933C2.66001 13.6867 5.13334 15.3333 8.00001 15.3333Z" fill="#34A853"/>
<path d="M3.89332 9.39332C3.74666 8.95332 3.65999 8.48665 3.65999 7.99998C3.65999 7.51332 3.74666 7.04665 3.89332 6.60665V4.71332H1.45332C0.953323 5.69998 0.666656 6.81332 0.666656 7.99998C0.666656 9.18665 0.953323 10.3 1.45332 11.2867L3.35332 9.80665L3.89332 9.39332Z" fill="#FBBC05"/>
<path d="M8.00001 3.58666C9.08001 3.58666 10.04 3.95999 10.8067 4.67999L12.9067 2.57999C11.6333 1.39332 9.98001 0.666656 8.00001 0.666656C5.13334 0.666656 2.66001 2.31332 1.45334 4.71332L3.89334 6.60666C4.47334 4.87332 6.09334 3.58666 8.00001 3.58666Z" fill="#EA4335"/>
</g>
<defs>
<clipPath id="clip0_883_948">
<rect width="16" height="16" fill="white"/>
</clipPath>
</defs>
</svg>
