<svg width="40" height="40" viewBox="0 0 40 40" fill="none" xmlns="http://www.w3.org/2000/svg">
<path d="M0 20C0 8.95431 8.95431 0 20 0C31.0457 0 40 8.95431 40 20C40 31.0457 31.0457 40 20 40C8.95431 40 0 31.0457 0 20Z" fill="#E2E8F0"/>
<path d="M26.6667 13.3333H13.3333C12.4129 13.3333 11.6667 14.0794 11.6667 14.9999V24.9999C11.6667 25.9204 12.4129 26.6666 13.3333 26.6666H26.6667C27.5871 26.6666 28.3333 25.9204 28.3333 24.9999V14.9999C28.3333 14.0794 27.5871 13.3333 26.6667 13.3333Z" stroke="#325CBA" stroke-width="1.66667" stroke-linecap="round" stroke-linejoin="round"/>
<path d="M28.3333 15.8333L20.8583 20.5833C20.6011 20.7444 20.3036 20.8299 20 20.8299C19.6964 20.8299 19.3989 20.7444 19.1417 20.5833L11.6667 15.8333" stroke="#325CBA" stroke-width="1.66667" stroke-linecap="round" stroke-linejoin="round"/>
</svg>
